HIERARCHY
ROOT mixamorig:Hips
{
	OFFSET 0.000000 201.639420 0.000000
	CHANNELS 6 Xposition Yposition Zposition Xrotation Yrotation Zrotation
	JOINT mixamorig:Spine
	{
		OFFSET 0.006200 19.524994 -2.481800
		CHANNELS 3 Xrotation Yrotation Zrotation
		JOINT mixamorig:Spine1
		{
			OFFSET -0.000900 22.835007 -2.825400
			CHANNELS 3 Xrotation Yrotation Zrotation
			JOINT mixamorig:Spine2
			{
				OFFSET -0.020600 26.552490 -3.193300
				CHANNELS 3 Xrotation Yrotation Zrotation
				JOINT mixamorig:Neck
				{
					OFFSET -0.060000 30.701813 1.352200
					CHANNELS 3 Xrotation Yrotation Zrotation
					JOINT mixamorig:Head
					{
						OFFSET -0.087200 22.547607 3.670900
						CHANNELS 3 Xrotation Yrotation Zrotation
						JOINT mixamorig:HeadTop_End
						{
							OFFSET -0.830600 40.355194 7.893500
							CHANNELS 3 Xrotation Yrotation Zrotation
							End Site
							{
								OFFSET 0.000000 30.592346 0.000000
							}
						}
						JOINT mixamorig:RightEye
						{
							OFFSET -6.302100 18.118591 16.197100
							CHANNELS 3 Xrotation Yrotation Zrotation
							End Site
							{
								OFFSET 0.000000 30.592346 0.000000
							}
						}
						JOINT mixamorig:LeftEye
						{
							OFFSET 6.741500 18.382690 16.401899
							CHANNELS 3 Xrotation Yrotation Zrotation
							End Site
							{
								OFFSET 0.000000 30.592346 0.000000
							}
						}
					}
				}
				JOINT mixamorig:LeftShoulder
				{
					OFFSET 11.924900 18.230499 1.425400
					CHANNELS 3 Xrotation Yrotation Zrotation
					JOINT mixamorig:LeftArm
					{
						OFFSET 25.435989 -0.697632 -5.229300
						CHANNELS 3 Xrotation Yrotation Zrotation
						JOINT mixamorig:LeftForeArm
						{
							OFFSET 54.684776 0.000000 0.000000
							CHANNELS 3 Xrotation Yrotation Zrotation
							JOINT mixamorig:LeftHand
							{
								OFFSET 55.098175 0.000000 0.000000
								CHANNELS 3 Xrotation Yrotation Zrotation
								JOINT mixamorig:LeftHandMiddle1
								{
									OFFSET 23.369751 0.000000 0.000000
									CHANNELS 3 Xrotation Yrotation Zrotation
									JOINT mixamorig:LeftHandMiddle2
									{
										OFFSET 6.378677 0.000000 0.000000
										CHANNELS 3 Xrotation Yrotation Zrotation
										JOINT mixamorig:LeftHandMiddle3
										{
											OFFSET 6.148331 0.000000 0.000000
											CHANNELS 3 Xrotation Yrotation Zrotation
											JOINT mixamorig:LeftHandMiddle4
											{
												OFFSET 6.582504 0.000000 0.000000
												CHANNELS 3 Xrotation Yrotation Zrotation
												End Site
												{
													OFFSET -1.168900 6.395691 1.028606
												}
											}
										}
									}
								}
								JOINT mixamorig:LeftHandThumb1
								{
									OFFSET 7.235672 -3.848206 5.434273
									CHANNELS 3 Xrotation Yrotation Zrotation
									JOINT mixamorig:LeftHandThumb2
									{
										OFFSET 6.568451 -3.792297 3.792300
										CHANNELS 3 Xrotation Yrotation Zrotation
										JOINT mixamorig:LeftHandThumb3
										{
											OFFSET 6.063080 -3.500519 3.500518
											CHANNELS 3 Xrotation Yrotation Zrotation
											JOINT mixamorig:LeftHandThumb4
											{
												OFFSET 4.793182 -2.767334 2.767349
												CHANNELS 3 Xrotation Yrotation Zrotation
												End Site
												{
													OFFSET 0.101639 6.054260 1.275483
												}
											}
										}
									}
								}
								JOINT mixamorig:LeftHandIndex1
								{
									OFFSET 23.101074 -0.309540 4.992809
									CHANNELS 3 Xrotation Yrotation Zrotation
									JOINT mixamorig:LeftHandIndex2
									{
										OFFSET 6.226883 0.000000 0.000000
										CHANNELS 3 Xrotation Yrotation Zrotation
										JOINT mixamorig:LeftHandIndex3
										{
											OFFSET 6.094330 0.000000 0.000000
											CHANNELS 3 Xrotation Yrotation Zrotation
											JOINT mixamorig:LeftHandIndex4
											{
												OFFSET 5.482605 0.000000 0.000000
												CHANNELS 3 Xrotation Yrotation Zrotation
												End Site
												{
													OFFSET -1.427902 5.233032 0.797164
												}
											}
										}
									}
								}
								JOINT mixamorig:LeftHandRing1
								{
									OFFSET 22.299240 0.021149 -3.964172
									CHANNELS 3 Xrotation Yrotation Zrotation
									JOINT mixamorig:LeftHandRing2
									{
										OFFSET 6.321869 0.000000 0.000000
										CHANNELS 3 Xrotation Yrotation Zrotation
										JOINT mixamorig:LeftHandRing3
										{
											OFFSET 5.899796 0.000000 0.000000
											CHANNELS 3 Xrotation Yrotation Zrotation
											JOINT mixamorig:LeftHandRing4
											{
												OFFSET 6.517899 0.000000 0.000000
												CHANNELS 3 Xrotation Yrotation Zrotation
												End Site
												{
													OFFSET -1.637299 6.232208 0.980890
												}
											}
										}
									}
								}
								JOINT mixamorig:LeftHandPinky1
								{
									OFFSET 20.463791 -0.302338 -8.562233
									CHANNELS 3 Xrotation Yrotation Zrotation
									JOINT mixamorig:LeftHandPinky2
									{
										OFFSET 6.908646 0.000000 0.000000
										CHANNELS 3 Xrotation Yrotation Zrotation
										JOINT mixamorig:LeftHandPinky3
										{
											OFFSET 4.622849 0.000000 0.000000
											CHANNELS 3 Xrotation Yrotation Zrotation
											JOINT mixamorig:LeftHandPinky4
											{
												OFFSET 5.216080 0.000000 0.000000
												CHANNELS 3 Xrotation Yrotation Zrotation
												End Site
												{
													OFFSET -0.606308 5.116241 0.814926
												}
											}
										}
									}
								}
							}
						}
					}
				}
				JOINT mixamorig:RightShoulder
				{
					OFFSET -12.001300 18.284088 1.348900
					CHANNELS 3 Xrotation Yrotation Zrotation
					JOINT mixamorig:RightArm
					{
						OFFSET -25.308500 -0.751312 -5.164599
						CHANNELS 3 Xrotation Yrotation Zrotation
						JOINT mixamorig:RightForeArm
						{
							OFFSET -54.684429 0.000000 0.000000
							CHANNELS 3 Xrotation Yrotation Zrotation
							JOINT mixamorig:RightHand
							{
								OFFSET -55.150291 0.000000 0.000000
								CHANNELS 3 Xrotation Yrotation Zrotation
								JOINT mixamorig:RightHandMiddle1
								{
									OFFSET -23.317566 0.000000 0.000000
									CHANNELS 3 Xrotation Yrotation Zrotation
									JOINT mixamorig:RightHandMiddle2
									{
										OFFSET -6.378403 0.000000 0.000000
										CHANNELS 3 Xrotation Yrotation Zrotation
										JOINT mixamorig:RightHandMiddle3
										{
											OFFSET -6.148193 0.000000 0.000000
											CHANNELS 3 Xrotation Yrotation Zrotation
											JOINT mixamorig:RightHandMiddle4
											{
												OFFSET -6.583389 0.000000 0.000000
												CHANNELS 3 Xrotation Yrotation Zrotation
												End Site
												{
													OFFSET 1.171692 6.395905 1.029786
												}
											}
										}
									}
								}
								JOINT mixamorig:RightHandThumb1
								{
									OFFSET -7.190521 -3.860474 5.435846
									CHANNELS 3 Xrotation Yrotation Zrotation
									JOINT mixamorig:RightHandThumb2
									{
										OFFSET -6.567429 -3.791718 3.791708
										CHANNELS 3 Xrotation Yrotation Zrotation
										JOINT mixamorig:RightHandThumb3
										{
											OFFSET -6.062469 -3.500153 3.500166
											CHANNELS 3 Xrotation Yrotation Zrotation
											JOINT mixamorig:RightHandThumb4
											{
												OFFSET -4.792618 -2.767029 2.767022
												CHANNELS 3 Xrotation Yrotation Zrotation
												End Site
												{
													OFFSET -0.100327 6.053253 1.276754
												}
											}
										}
									}
								}
								JOINT mixamorig:RightHandIndex1
								{
									OFFSET -23.048981 -0.310791 4.992554
									CHANNELS 3 Xrotation Yrotation Zrotation
									JOINT mixamorig:RightHandIndex2
									{
										OFFSET -6.227539 0.000000 0.000000
										CHANNELS 3 Xrotation Yrotation Zrotation
										JOINT mixamorig:RightHandIndex3
										{
											OFFSET -6.095047 0.000000 0.000000
											CHANNELS 3 Xrotation Yrotation Zrotation
											JOINT mixamorig:RightHandIndex4
											{
												OFFSET -5.484772 0.000000 0.000000
												CHANNELS 3 Xrotation Yrotation Zrotation
												End Site
												{
													OFFSET 1.420593 5.237305 0.797056
												}
											}
										}
									}
								}
								JOINT mixamorig:RightHandRing1
								{
									OFFSET -22.246323 0.020569 -3.963762
									CHANNELS 3 Xrotation Yrotation Zrotation
									JOINT mixamorig:RightHandRing2
									{
										OFFSET -6.322128 0.000000 0.000000
										CHANNELS 3 Xrotation Yrotation Zrotation
										JOINT mixamorig:RightHandRing3
										{
											OFFSET -5.900024 0.000000 0.000000
											CHANNELS 3 Xrotation Yrotation Zrotation
											JOINT mixamorig:RightHandRing4
											{
												OFFSET -6.518356 0.000000 0.000000
												CHANNELS 3 Xrotation Yrotation Zrotation
												End Site
												{
													OFFSET 1.636398 6.232697 0.982186
												}
											}
										}
									}
								}
								JOINT mixamorig:RightHandPinky1
								{
									OFFSET -20.411011 -0.303314 -8.561701
									CHANNELS 3 Xrotation Yrotation Zrotation
									JOINT mixamorig:RightHandPinky2
									{
										OFFSET -6.907349 0.000000 0.000000
										CHANNELS 3 Xrotation Yrotation Zrotation
										JOINT mixamorig:RightHandPinky3
										{
											OFFSET -4.623840 0.000000 0.000000
											CHANNELS 3 Xrotation Yrotation Zrotation
											JOINT mixamorig:RightHandPinky4
											{
												OFFSET -5.218353 0.000000 0.000000
												CHANNELS 3 Xrotation Yrotation Zrotation
												End Site
												{
													OFFSET 0.602097 5.118835 0.816273
												}
											}
										}
									}
								}
							}
						}
					}
				}
			}
		}
	}
	JOINT mixamorig:LeftUpLeg
	{
		OFFSET 18.168400 -13.561905 -0.039000
		CHANNELS 3 Xrotation Yrotation Zrotation
		JOINT mixamorig:LeftLeg
		{
			OFFSET 0.577358 -80.825211 -3.695000
			CHANNELS 3 Xrotation Yrotation Zrotation
			JOINT mixamorig:LeftFoot
			{
				OFFSET -0.577356 -83.370262 -6.520700
				CHANNELS 3 Xrotation Yrotation Zrotation
				JOINT mixamorig:LeftToeBase
				{
					OFFSET 0.750401 -20.798306 25.135401
					CHANNELS 3 Xrotation Yrotation Zrotation
					JOINT mixamorig:LeftToe_End
					{
						OFFSET -0.000500 0.001200 19.917799
						CHANNELS 3 Xrotation Yrotation Zrotation
						End Site
						{
							OFFSET 0.000000 19.917805 0.000000
						}
					}
				}
			}
		}
	}
	JOINT mixamorig:RightUpLeg
	{
		OFFSET -18.162500 -13.585098 -0.041000
		CHANNELS 3 Xrotation Yrotation Zrotation
		JOINT mixamorig:RightLeg
		{
			OFFSET -0.595024 -80.945297 -3.631900
			CHANNELS 3 Xrotation Yrotation Zrotation
			JOINT mixamorig:RightFoot
			{
				OFFSET 0.595024 -83.218193 -6.561200
				CHANNELS 3 Xrotation Yrotation Zrotation
				JOINT mixamorig:RightToeBase
				{
					OFFSET -0.753601 -20.807106 25.115000
					CHANNELS 3 Xrotation Yrotation Zrotation
					JOINT mixamorig:RightToe_End
					{
						OFFSET 0.000299 0.001700 19.918200
						CHANNELS 3 Xrotation Yrotation Zrotation
						End Site
						{
							OFFSET 0.000000 19.918203 0.000000
						}
					}
				}
			}
		}
	}
}
MOTION
Frames: 4
Frame Time: 0.033333
19.333693 150.492630 58.987724 -1.730957 -35.805115 -8.029395 32.119668 4.092253 -2.909020 0.157924 0.609824 1.481155 0.146381 0.635253 1.475097 -3.968754 1.139668 5.808813 -18.087079 12.114682 3.039124 0.000001 0.000001 -0.000000 0.000001 0.000001 -0.000000 0.000001 0.000001 -0.000000 0.408261 -1.700303 2.050233 -13.552597 -1.266328 -66.527040 -0.000005 -26.103562 -0.000015 -6.672990 11.291022 -1.762075 -0.670978 -4.622182 -7.871664 0.729280 3.088910 -26.561916 0.161109 1.483744 -12.394060 0.000001 0.000001 -0.000000 2.734980 8.496217 -0.821001 4.247343 6.728917 0.771219 -0.487701 2.722621 2.716013 0.000001 0.000001 -0.000001 -0.819167 -5.489237 -8.244990 2.011894 4.868061 -44.889048 0.212433 1.700461 -14.241003 0.000001 0.000001 -0.000000 -0.845800 -4.795744 -9.386632 0.171674 1.531080 -12.796125 0.022568 0.558293 -4.631453 -0.000006 -0.000000 0.000001 -0.608038 -2.057534 -12.479040 -0.018111 -4.056667 -0.491024 0.005853 -0.284687 2.359624 -0.000005 -0.000000 0.000001 -0.255846 -3.074882 -5.070341 -40.687502 -10.705375 54.637480 0.000060 111.426873 -0.000046 22.058617 -35.659960 9.638307 -0.160246 -1.896696 -3.755553 0.081141 -1.061267 8.743214 1.655769 -0.129778 1.975799 0.000003 0.000001 -0.000001 -2.887690 5.221900 0.584123 7.025628 -15.623095 -1.492401 -2.597294 2.154377 -2.989326 0.000001 -0.000000 -0.000000 -1.557771 1.098808 26.925661 0.007563 -0.324873 2.666759 0.003673 -0.226417 1.858326 0.000003 -0.000000 -0.000002 -0.459933 -9.788115 -3.612371 0.017532 -0.494365 4.060033 1.562052 0.055880 -0.291353 0.000000 -0.000000 0.000001 3.835070 -21.059877 9.323078 -0.000001 -0.000005 0.000013 0.006405 0.298972 -2.454045 0.000000 0.000001 0.000001 -63.695844 -11.656847 26.043347 82.435158 2.134588 -3.156493 -9.392236 6.091339 -10.395026 -1.996094 0.040578 -1.164151 0.000000 -0.000000 -0.000000 -38.074582 -6.627454 -26.686317 86.017572 -3.458213 2.421898 -30.510349 -4.872597 13.085351 -4.641517 -0.651323 8.594748 0.000000 0.000001 -0.000000 
19.291937 150.278000 59.005039 -1.641674 -35.580433 -7.832777 32.276332 4.019925 -2.812874 0.192073 0.587814 1.540541 0.180338 0.617426 1.536135 -4.069296 1.186792 5.706026 -18.231973 12.244767 3.019276 -0.000000 -0.000002 0.000000 -0.000000 -0.000002 0.000000 -0.000000 -0.000002 0.000000 0.389942 -1.577837 2.152642 -13.356949 -1.675181 -66.549996 0.000019 -26.773983 0.000045 -6.388955 11.337487 -2.164067 -0.686230 -4.830027 -7.757509 0.725364 3.081096 -26.489396 0.158838 1.473330 -12.305650 0.000002 0.000002 0.000001 2.772452 8.542917 -0.515741 3.843208 6.317935 0.575750 -0.478898 2.790058 2.693627 0.000003 0.000002 0.000000 -0.827674 -5.643871 -8.130264 2.004893 4.861028 -44.806454 0.209851 1.690248 -14.153494 0.000001 0.000001 -0.000002 -0.877556 -5.105908 -9.247286 0.170268 1.524703 -12.742092 0.021712 0.547522 -4.541856 0.000000 0.000000 -0.000000 -0.694677 -2.534345 -12.280532 -0.018103 -4.056516 -0.492402 0.006391 -0.297037 2.462061 -0.000002 -0.000000 0.000000 -0.300015 -3.217548 -5.559539 -41.198226 -10.923109 55.384214 0.000090 110.474184 -0.000115 22.322791 -34.658432 8.001823 -0.165502 -2.290752 -3.835731 0.083086 -1.073845 8.847765 1.709264 -0.133715 2.004334 0.000005 -0.000001 -0.000000 -2.979726 5.172986 -0.026494 6.981068 -15.501563 -1.483387 -2.645589 2.245724 -2.985650 0.000003 -0.000000 0.000001 -1.218346 0.635798 26.352746 0.008779 -0.350151 2.874438 0.003537 -0.222180 1.823458 -0.000003 -0.000004 -0.000004 -0.367396 -10.083541 -3.243961 0.018633 -0.509703 4.186219 1.588364 0.045973 -0.209908 0.000001 0.000001 0.000001 4.261647 -21.236967 10.276327 0.000000 -0.002588 0.021202 0.005768 0.283999 -2.331015 -0.000002 0.000001 0.000001 -63.989645 -11.557302 25.937179 82.583107 2.039780 -3.195394 -9.269606 6.007941 -10.397508 -2.186397 0.039866 -1.044155 0.000000 -0.000000 -0.000000 -38.152484 -6.525772 -26.821115 86.272283 -3.499203 2.382876 -30.641164 -5.003294 13.129876 -4.662443 -0.659192 8.644711 0.000000 -0.000001 0.000000 
19.280943 150.077621 58.951336 -1.553508 -35.455239 -7.631974 32.407591 4.102021 -2.751107 0.222163 0.594358 1.548754 0.210306 0.625062 1.543821 -4.146238 1.187813 5.642713 -18.261052 12.225300 2.935633 -0.000000 -0.000002 0.000001 -0.000000 -0.000002 0.000001 -0.000000 -0.000002 0.000001 0.380932 -1.544450 2.323397 -13.339087 -2.287722 -66.664586 -0.000008 -27.345842 -0.000034 -6.358307 10.963311 -2.334119 -0.643188 -4.309234 -7.979683 0.703332 3.036537 -26.076400 0.144299 1.405074 -11.727040 0.000002 0.000001 -0.000000 2.925616 8.682060 -0.494976 3.609254 6.090806 0.473907 -0.578198 2.694207 2.697368 0.000001 0.000002 -0.000000 -0.804396 -5.089083 -8.558471 1.934666 4.789546 -43.971631 0.184398 1.585944 -13.263217 -0.000003 0.000001 0.000002 -0.794396 -4.498623 -9.309908 0.165518 1.503627 -12.562875 0.019327 0.516595 -4.284746 0.000006 0.000000 -0.000001 -0.520077 -1.709173 -12.206469 -0.018118 -4.056414 -0.493231 0.006394 -0.297222 2.463562 0.000002 -0.000000 0.000001 -0.317888 -3.232437 -5.762655 -41.576649 -10.562233 56.288477 0.000032 106.323813 -0.000023 20.774700 -31.304581 4.975594 -0.163370 -2.662183 -3.440534 0.077748 -1.039019 8.558501 1.703826 -0.136781 2.050002 0.000001 -0.000001 0.000001 -2.616792 4.755536 0.077058 7.140962 -15.932555 -1.512393 -2.605032 2.159485 -2.985461 0.000001 -0.000001 0.000000 -0.834522 -0.089737 26.364476 0.005209 -0.269614 2.212983 0.004355 -0.246571 2.023661 0.000002 -0.000004 -0.000001 -0.237290 -10.042174 -2.622742 0.018365 -0.506080 4.156375 1.596369 0.045797 -0.187790 -0.000001 -0.000001 -0.000000 4.582812 -20.703043 11.336028 -0.000002 -0.002263 0.018562 0.005870 0.286055 -2.347973 -0.000001 -0.000001 -0.000002 -64.266753 -11.419805 25.904276 82.689514 1.972408 -3.225796 -9.112290 5.913979 -10.442321 -2.383434 0.037496 -0.900705 -0.000000 0.000000 -0.000000 -38.312484 -6.400875 -26.955861 86.533975 -3.514113 2.362990 -30.758726 -5.137473 13.104974 -4.655479 -0.660448 8.652134 0.000000 0.000001 -0.000000 
19.291439 149.911346 58.853851 -1.516107 -35.439280 -7.493530 32.555397 4.372924 -2.753721 0.267451 0.630905 1.546274 0.254971 0.662109 1.538994 -4.259013 1.154395 5.578190 -18.270857 12.046452 2.846353 0.000001 -0.000001 0.000000 0.000001 -0.000001 0.000000 0.000001 -0.000001 0.000000 0.388829 -1.637881 2.446553 -13.620303 -2.932236 -66.916927 -0.000002 -27.793787 -0.000003 -6.562316 10.606197 -2.360123 -0.610493 -3.989413 -8.083726 0.689145 3.007419 -25.807221 0.136060 1.364818 -11.386319 0.000002 0.000002 -0.000003 3.047623 8.770542 -0.552652 3.492084 5.986084 0.431775 -0.645823 2.585486 2.715911 0.000000 0.000000 -0.000001 -0.786755 -4.853640 -8.713364 1.890777 4.743782 -43.443500 0.169797 1.522733 -12.725033 -0.000000 0.000000 -0.000005 -0.728646 -4.019425 -9.385320 0.162745 1.491136 -12.456903 0.018198 0.501356 -4.158248 -0.000005 0.000000 -0.000001 -0.368564 -0.970104 -12.276861 -0.018107 -4.056402 -0.493306 0.006150 -0.291270 2.414305 -0.000002 0.000000 0.000001 -0.322311 -3.237315 -5.741083 -42.802873 -9.779110 57.401654 -0.001832 96.007680 0.001949 16.625643 -23.734110 0.279993 -0.012716 -0.635061 -4.749529 0.093039 -1.135937 9.363891 1.737387 -0.184264 2.525567 0.000002 0.000001 -0.000000 -2.776396 4.141433 -0.866575 6.751490 -14.866706 -1.425539 -2.648669 2.273593 -2.972523 0.000004 -0.000001 0.000000 -1.514365 1.795442 24.855344 0.017875 -0.499318 4.100955 0.008025 -0.334723 2.747649 0.000002 -0.000003 0.000001 -0.167016 -7.558551 -3.620791 0.020331 -0.532262 4.371865 1.769332 0.039865 -0.153949 0.000000 0.000001 0.000000 3.700383 -17.338690 10.309560 0.000002 -0.000750 0.006131 0.007628 0.326338 -2.678727 0.000002 -0.000001 -0.000000 -64.468571 -11.285166 25.926437 82.772406 1.956385 -3.215201 -8.962403 5.829399 -10.497197 -2.539784 0.035558 -0.801824 0.000000 -0.000000 -0.000000 -38.482481 -6.268835 -27.062582 86.765478 -3.517347 2.367573 -30.821792 -5.232566 13.075705 -4.640640 -0.659724 8.646795 -0.000000 0.000001 -0.000000 
